<svg xmlns="http://www.w3.org/2000/svg" xml:space="preserve" width="800" height="800" viewBox="0 0 368 368"><g transform="translate(22 26)"><path d="M306 14c17.6 0 32 14.4 32 32v224c0 17.6-14.4 32-32 32H18c-17.6 0-32-14.4-32-32V46C-14 28.4.4 14 18 14h288z" style="fill:#9ce0ff"/><path d="m334 178.8-47.6-47.6c-3.2-3.2-8-3.2-11.2 0l-96.8 95.2-60-56.4L-.8 296.8h336l-1.2-118z" style="fill:#80d440"/><path d="m177.2 222.8-52.4-50.4c-3.2-3.2-8-3.2-11.2 0L-10 294h120l67.2-71.2z" style="fill:#62c418"/><path d="M132 278c-2 0-4-.8-5.6-2.4-3.2-3.2-3.2-8 0-11.2l8-8c3.2-3.2 8-3.2 11.2 0 3.2 3.2 3.2 8 0 11.2l-8 8c-1.6 1.6-3.6 2.4-5.6 2.4zM-1.2 293.2c-2 0-4-.8-5.6-2.4-3.2-3.2-3.2-8.4 0-11.2L108.8 166c3.2-3.2 7.2-4.8 11.2-4.8s8.4 1.6 11.2 4.8l46.4 46.4c3.2 3.2 3.2 8 0 11.2s-8 3.2-11.2 0L120 177.2 4.4 290.8c-1.6 1.6-3.6 2.4-5.6 2.4z" style="fill:#5f961d"/><path d="M156.8 252.8c-2 0-4-.8-5.6-2.4-3.2-3.2-3.2-8 0-11.2l118.4-117.6c6.4-6.4 16-6.4 22.4 0l47.6 47.6c3.2 3.2 3.2 8 0 11.2s-8 3.2-11.2 0l-47.6-47.6-118.4 117.6c-1.6 1.6-3.6 2.4-5.6 2.4z" style="fill:#5f971d"/><path d="M306 310H18c-22 0-40-18-40-40V46C-22 24-4 6 18 6h288c22 0 40 18 40 40v224c0 22-18 40-40 40zM18 22C4.8 22-6 32.8-6 46v224c0 13.2 10.8 24 24 24h288c13.2 0 24-10.8 24-24V46c0-13.2-10.8-24-24-24H18z" style="fill:#62a2dd"/><circle cx="66" cy="94" r="24" style="fill:#ffe53c"/><path d="M66 118c13.2 0 24-10.8 24-24S79.2 70 66 70v48z" style="fill:#f3d933"/><path d="M66 126c-17.6 0-32-14.4-32-32s14.4-32 32-32 32 14.4 32 32-14.4 32-32 32zm0-48c-8.8 0-16 7.2-16 16s7.2 16 16 16 16-7.2 16-16-7.2-16-16-16z" style="fill:#c39215"/></g></svg>